<svg version="1.1" id="Layer_1" xmlns="http://www.w3.org/2000/svg" xmlns:xlink="http://www.w3.org/1999/xlink" x="0px" y="0px"
	 width="100%" viewBox="0 0 1308 288" enable-background="new 0 0 1308 288" xml:space="preserve">
<path fill="#000000" opacity="1.000000" stroke="none" 
	d="
M1240.000000,289.000000 
	C826.666687,289.000000 413.833344,289.000000 1.000000,289.000000 
	C1.000000,193.000000 1.000000,97.000000 1.000000,1.000000 
	C437.000000,1.000000 873.000000,1.000000 1309.000000,1.000000 
	C1309.000000,97.000000 1309.000000,193.000000 1309.000000,289.000000 
	C1286.166626,289.000000 1263.333374,289.000000 1240.000000,289.000000 
M454.412109,161.054123 
	C436.746124,142.232788 419.117462,123.376091 401.354126,104.647118 
	C399.655579,102.856201 397.116852,101.862129 394.508911,100.206589 
	C394.508911,133.322250 394.508911,164.980591 394.508911,196.668213 
	C397.973053,196.668213 401.561279,196.668213 404.880981,196.668213 
	C404.880981,173.941101 404.880981,151.537811 404.880981,129.134521 
	C405.356476,128.800507 405.831970,128.466476 406.307465,128.132462 
	C407.352570,129.587860 408.249542,131.182205 409.464874,132.477951 
	C428.947205,153.249374 448.451447,174.000427 468.021271,194.689331 
	C469.499207,196.251740 471.510101,197.309967 473.273254,198.602585 
	C473.847412,198.256607 474.421570,197.910645 474.995728,197.564682 
	C474.995728,165.681839 474.995728,133.798996 474.995728,101.602539 
	C471.901154,101.602539 468.221191,101.602539 464.882935,101.602539 
	C464.882935,124.909309 464.882935,147.831894 464.882935,172.088394 
	C460.997253,167.995117 457.947479,164.782440 454.412109,161.054123 
M795.713684,196.086456 
	C782.285156,183.892334 774.216370,167.704163 762.964905,153.583405 
	C764.629700,152.442535 765.573975,151.791367 766.522400,151.146210 
	C777.015564,144.008408 781.626099,131.927658 778.525330,119.692757 
	C775.806763,108.965889 766.715698,101.736092 753.606567,101.006180 
	C743.394470,100.437569 733.125366,100.892395 723.146484,100.892395 
	C723.146484,133.491379 723.146484,164.965500 723.146484,196.461639 
	C728.047302,196.461639 733.199951,196.461639 737.641479,196.461639 
	C737.641479,182.929825 737.641479,169.928818 737.641479,156.905838 
	C740.590759,156.905838 743.473083,156.546844 746.209351,157.024445 
	C748.236694,157.378296 750.776428,158.315292 751.884216,159.857239 
	C760.135620,171.342682 768.044128,183.073929 776.198608,194.630402 
	C776.990967,195.753265 778.700378,196.831100 780.018677,196.874298 
	C785.158508,197.042633 790.312317,196.785843 795.713684,196.086456 
M567.602417,174.276199 
	C578.546387,150.106323 589.490356,125.936462 600.481445,101.662498 
	C596.072693,101.662498 591.722534,101.662498 588.901794,101.662498 
	C579.370361,128.397507 567.215088,152.960754 556.289124,179.484131 
	C554.809998,176.473663 554.036377,175.024185 553.371277,173.526535 
	C545.058777,154.809235 536.669128,136.125168 528.534729,117.330666 
	C526.774841,113.264519 525.998779,108.778648 524.655945,104.521919 
	C524.300842,103.396294 523.561646,101.517029 522.933044,101.489563 
	C517.432312,101.249207 511.916595,101.350571 505.960968,101.350571 
	C509.685791,108.962845 513.087952,115.442581 516.076355,122.107841 
	C526.840881,146.116913 537.457153,170.192459 548.157410,194.230453 
	C549.197205,196.566360 549.700989,199.182434 553.451538,199.148132 
	C557.232727,199.113525 557.588806,196.361557 558.643372,194.082352 
	C561.580078,187.735779 564.402893,181.336517 567.602417,174.276199 
M656.575623,107.914360 
	C663.843384,108.347778 671.111145,108.781189 678.932678,109.247627 
	C679.807983,106.759392 680.811035,103.908066 681.740479,101.265915 
	C664.829773,101.265915 648.486877,101.265915 632.608887,101.265915 
	C632.608887,133.629211 632.608887,165.134216 632.608887,197.505859 
	C647.597961,197.505859 662.730042,197.541855 677.860962,197.424911 
	C678.869812,197.417114 680.542358,196.419525 680.752441,195.590118 
	C681.494873,192.658661 681.735168,189.600067 682.130066,186.840012 
	C671.823242,187.991348 662.275513,189.244446 652.690613,190.063095 
	C646.286499,190.610107 646.247620,190.333542 646.238708,184.094498 
	C646.225159,174.599701 646.215088,165.104782 646.253540,155.610123 
	C646.260620,153.866653 646.505493,152.124146 646.697327,149.649429 
	C655.982483,150.410568 664.698669,151.125076 673.762085,151.868042 
	C674.486877,148.668198 675.165833,145.670990 675.920349,142.339951 
	C673.085144,142.339951 670.797791,142.238907 668.522278,142.359573 
	C662.539368,142.676834 656.554626,143.006287 650.584534,143.499466 
	C647.343689,143.767181 646.117065,142.579834 646.191833,139.288986 
	C646.354492,132.129990 646.235718,124.964653 646.234924,117.801903 
	C646.233948,108.335869 646.235107,108.335869 656.575623,107.914360 
M926.904968,118.541756 
	C926.905334,117.042435 927.061890,115.523460 926.876404,114.047501 
	C926.328674,109.690781 927.682007,107.686768 932.529358,108.008446 
	C941.280457,108.589180 950.065735,108.654327 959.574768,108.958405 
	C960.299683,106.780693 961.254211,103.913498 962.109497,101.344200 
	C945.182373,101.344200 928.846802,101.344200 913.123596,101.344200 
	C913.123596,133.601151 913.123596,164.961319 913.123596,196.917130 
	C928.607910,196.917130 944.520691,196.917130 961.036621,196.917130 
	C961.625854,193.804321 962.281250,190.342041 963.087646,186.082230 
	C960.220947,186.618256 958.318848,187.084869 956.388489,187.315598 
	C948.138123,188.301727 939.877014,189.197266 931.625000,190.170395 
	C928.318848,190.560318 926.780884,189.528976 926.845947,185.848770 
	C927.031494,175.356934 927.038757,164.857224 926.839783,154.365860 
	C926.770752,150.721725 928.163147,149.661804 931.538208,150.018600 
	C937.657043,150.665405 943.786316,151.265091 949.926575,151.621140 
	C951.475525,151.710968 954.044495,151.233643 954.473083,150.272003 
	C955.543335,147.870316 955.653625,145.040802 956.213989,142.035400 
	C947.403992,142.538727 939.441284,142.895401 931.496765,143.492813 
	C928.010620,143.754959 926.742493,142.539505 926.852783,139.018021 
	C927.056030,132.527451 926.907043,126.025871 926.904968,118.541756 
M841.525391,131.779282 
	C840.014404,129.019104 838.019592,126.413155 837.081360,123.470352 
	C834.040649,113.933144 840.946594,104.767776 850.332825,106.594009 
	C854.641174,107.432251 858.461365,111.058296 862.338867,113.664253 
	C863.530945,114.465408 864.179626,116.075165 865.343933,117.683205 
	C869.546204,107.356728 867.731079,103.394562 858.364746,100.924370 
	C857.882202,100.797119 857.415405,100.605972 856.929626,100.496216 
	C837.418335,96.088318 821.990417,109.386391 825.617432,128.032822 
	C826.589722,133.031509 829.197693,138.232132 832.476196,142.150803 
	C838.754517,149.655029 846.459595,155.963760 852.759094,163.452789 
	C856.034302,167.346375 858.388489,172.487930 859.678162,177.450516 
	C861.077026,182.832947 858.485901,187.442871 853.361694,190.354691 
	C845.009705,195.100754 834.237610,191.086334 829.155212,181.221222 
	C828.400146,179.755585 827.576050,178.325470 826.783936,176.878906 
	C826.282227,176.978867 825.780518,177.078827 825.278809,177.178772 
	C824.781006,181.039215 823.889709,184.906509 823.956848,188.757111 
	C823.988892,190.590881 825.393005,193.189453 826.951660,194.073654 
	C834.386475,198.291336 842.559387,199.744324 851.053772,198.813843 
	C863.611206,197.438309 872.116760,187.752441 872.341492,175.158905 
	C872.506897,165.889420 867.768127,159.011887 861.839722,152.728226 
	C855.331604,145.830048 848.605042,139.137970 841.525391,131.779282 
M1236.498535,158.893936 
	C1241.497559,158.887650 1246.507690,159.058899 1251.487671,158.747864 
	C1252.703003,158.671936 1254.371460,157.219589 1254.817627,156.022156 
	C1255.218628,154.946335 1254.635254,152.850601 1253.739746,152.120697 
	C1252.762451,151.324310 1250.927124,151.404999 1249.465576,151.404266 
	C1190.309937,151.374725 1131.154419,151.379028 1071.998779,151.381714 
	C1071.165894,151.381744 1070.042847,151.081787 1069.559326,151.501968 
	C1068.478882,152.440704 1066.946167,153.798996 1067.020386,154.889404 
	C1067.113770,156.259827 1068.363892,157.990356 1069.609253,158.713440 
	C1070.737305,159.368317 1072.529785,158.891876 1074.029297,158.891937 
	C1127.852539,158.894226 1181.675781,158.893890 1236.498535,158.893936 
M349.948181,108.036362 
	C350.212585,105.980110 350.476990,103.923859 350.787628,101.507812 
	C345.250519,101.507812 340.342957,101.507812 335.509064,101.507812 
	C335.509064,133.272507 335.509064,164.907516 335.509064,196.561752 
	C340.404236,196.561752 345.442596,196.561752 350.376465,196.561752 
	C348.408783,167.079269 348.723297,138.012634 349.948181,108.036362 
M145.500000,158.004242 
	C163.487030,158.004242 181.474060,158.004623 199.461090,158.004074 
	C208.454620,158.003799 217.448502,157.957291 226.441437,158.029785 
	C228.904907,158.049637 230.754242,157.647583 230.831802,154.676712 
	C230.915588,151.467621 229.042343,150.722687 226.309189,150.979385 
	C225.813980,151.025879 225.310532,150.984070 224.810898,150.984070 
	C166.019867,150.984055 107.228851,150.983749 48.437824,150.987015 
	C47.272854,150.987076 45.855862,150.625015 45.006931,151.154358 
	C43.954472,151.810608 42.680882,153.277023 42.762295,154.292496 
	C42.864388,155.565903 44.003235,157.130005 45.146805,157.831879 
	C46.121971,158.430420 47.736813,158.001770 49.068676,158.001892 
	C80.879120,158.004776 112.689560,158.004196 145.500000,158.004242 
z"/>
<path fill="#94846B" opacity="1.000000" stroke="none" 
	d="
M454.654907,161.311935 
	C457.947479,164.782440 460.997253,167.995117 464.882935,172.088394 
	C464.882935,147.831894 464.882935,124.909309 464.882935,101.602539 
	C468.221191,101.602539 471.901154,101.602539 474.995728,101.602539 
	C474.995728,133.798996 474.995728,165.681839 474.995728,197.564682 
	C474.421570,197.910645 473.847412,198.256607 473.273254,198.602585 
	C471.510101,197.309967 469.499207,196.251740 468.021271,194.689331 
	C448.451447,174.000427 428.947205,153.249374 409.464874,132.477951 
	C408.249542,131.182205 407.352570,129.587860 406.307465,128.132462 
	C405.831970,128.466476 405.356476,128.800507 404.880981,129.134521 
	C404.880981,151.537811 404.880981,173.941101 404.880981,196.668213 
	C401.561279,196.668213 397.973053,196.668213 394.508911,196.668213 
	C394.508911,164.980591 394.508911,133.322250 394.508911,100.206589 
	C397.116852,101.862129 399.655579,102.856201 401.354126,104.647118 
	C419.117462,123.376091 436.746124,142.232788 454.654907,161.311935 
z"/>
<path fill="#95846B" opacity="1.000000" stroke="none" 
	d="
M795.587280,196.386810 
	C790.312317,196.785843 785.158508,197.042633 780.018677,196.874298 
	C778.700378,196.831100 776.990967,195.753265 776.198608,194.630402 
	C768.044128,183.073929 760.135620,171.342682 751.884216,159.857239 
	C750.776428,158.315292 748.236694,157.378296 746.209351,157.024445 
	C743.473083,156.546844 740.590759,156.905838 737.641479,156.905838 
	C737.641479,169.928818 737.641479,182.929825 737.641479,196.461639 
	C733.199951,196.461639 728.047302,196.461639 723.146484,196.461639 
	C723.146484,164.965500 723.146484,133.491379 723.146484,100.892395 
	C733.125366,100.892395 743.394470,100.437569 753.606567,101.006180 
	C766.715698,101.736092 775.806763,108.965889 778.525330,119.692757 
	C781.626099,131.927658 777.015564,144.008408 766.522400,151.146210 
	C765.573975,151.791367 764.629700,152.442535 762.964905,153.583405 
	C774.216370,167.704163 782.285156,183.892334 795.587280,196.386810 
M764.862244,131.986511 
	C764.989014,130.163437 765.246338,128.338608 765.222107,126.517540 
	C765.019531,111.315681 756.259094,103.933708 741.276855,106.275307 
	C738.666016,106.683350 736.661377,107.251694 736.718567,110.782425 
	C736.912292,122.748199 736.863831,134.719742 736.742554,146.687378 
	C736.714355,149.468475 737.838257,150.383163 740.418579,150.793167 
	C752.543518,152.719772 761.927429,145.885437 764.862244,131.986511 
z"/>
<path fill="#94846B" opacity="1.000000" stroke="none" 
	d="
M567.436523,174.617126 
	C564.402893,181.336517 561.580078,187.735779 558.643372,194.082352 
	C557.588806,196.361557 557.232727,199.113525 553.451538,199.148132 
	C549.700989,199.182434 549.197205,196.566360 548.157410,194.230453 
	C537.457153,170.192459 526.840881,146.116913 516.076355,122.107841 
	C513.087952,115.442581 509.685791,108.962845 505.960968,101.350571 
	C511.916595,101.350571 517.432312,101.249207 522.933044,101.489563 
	C523.561646,101.517029 524.300842,103.396294 524.655945,104.521919 
	C525.998779,108.778648 526.774841,113.264519 528.534729,117.330666 
	C536.669128,136.125168 545.058777,154.809235 553.371277,173.526535 
	C554.036377,175.024185 554.809998,176.473663 556.289124,179.484131 
	C567.215088,152.960754 579.370361,128.397507 588.901794,101.662498 
	C591.722534,101.662498 596.072693,101.662498 600.481445,101.662498 
	C589.490356,125.936462 578.546387,150.106323 567.436523,174.617126 
z"/>
<path fill="#94846B" opacity="1.000000" stroke="none" 
	d="
M656.095764,107.926987 
	C646.235107,108.335869 646.233948,108.335869 646.234924,117.801903 
	C646.235718,124.964653 646.354492,132.129990 646.191833,139.288986 
	C646.117065,142.579834 647.343689,143.767181 650.584534,143.499466 
	C656.554626,143.006287 662.539368,142.676834 668.522278,142.359573 
	C670.797791,142.238907 673.085144,142.339951 675.920349,142.339951 
	C675.165833,145.670990 674.486877,148.668198 673.762085,151.868042 
	C664.698669,151.125076 655.982483,150.410568 646.697327,149.649429 
	C646.505493,152.124146 646.260620,153.866653 646.253540,155.610123 
	C646.215088,165.104782 646.225159,174.599701 646.238708,184.094498 
	C646.247620,190.333542 646.286499,190.610107 652.690613,190.063095 
	C662.275513,189.244446 671.823242,187.991348 682.130066,186.840012 
	C681.735168,189.600067 681.494873,192.658661 680.752441,195.590118 
	C680.542358,196.419525 678.869812,197.417114 677.860962,197.424911 
	C662.730042,197.541855 647.597961,197.505859 632.608887,197.505859 
	C632.608887,165.134216 632.608887,133.629211 632.608887,101.265915 
	C648.486877,101.265915 664.829773,101.265915 681.740479,101.265915 
	C680.811035,103.908066 679.807983,106.759392 678.932678,109.247627 
	C671.111145,108.781189 663.843384,108.347778 656.095764,107.926987 
z"/>
<path fill="#93836A" opacity="1.000000" stroke="none" 
	d="
M926.904968,119.035324 
	C926.907043,126.025871 927.056030,132.527451 926.852783,139.018021 
	C926.742493,142.539505 928.010620,143.754959 931.496765,143.492813 
	C939.441284,142.895401 947.403992,142.538727 956.213989,142.035400 
	C955.653625,145.040802 955.543335,147.870316 954.473083,150.272003 
	C954.044495,151.233643 951.475525,151.710968 949.926575,151.621140 
	C943.786316,151.265091 937.657043,150.665405 931.538208,150.018600 
	C928.163147,149.661804 926.770752,150.721725 926.839783,154.365860 
	C927.038757,164.857224 927.031494,175.356934 926.845947,185.848770 
	C926.780884,189.528976 928.318848,190.560318 931.625000,190.170395 
	C939.877014,189.197266 948.138123,188.301727 956.388489,187.315598 
	C958.318848,187.084869 960.220947,186.618256 963.087646,186.082230 
	C962.281250,190.342041 961.625854,193.804321 961.036621,196.917130 
	C944.520691,196.917130 928.607910,196.917130 913.123596,196.917130 
	C913.123596,164.961319 913.123596,133.601151 913.123596,101.344200 
	C928.846802,101.344200 945.182373,101.344200 962.109497,101.344200 
	C961.254211,103.913498 960.299683,106.780693 959.574768,108.958405 
	C950.065735,108.654327 941.280457,108.589180 932.529358,108.008446 
	C927.682007,107.686768 926.328674,109.690781 926.876404,114.047501 
	C927.061890,115.523460 926.905334,117.042435 926.904968,119.035324 
z"/>
<path fill="#93836A" opacity="1.000000" stroke="none" 
	d="
M841.749512,132.067688 
	C848.605042,139.137970 855.331604,145.830048 861.839722,152.728226 
	C867.768127,159.011887 872.506897,165.889420 872.341492,175.158905 
	C872.116760,187.752441 863.611206,197.438309 851.053772,198.813843 
	C842.559387,199.744324 834.386475,198.291336 826.951660,194.073654 
	C825.393005,193.189453 823.988892,190.590881 823.956848,188.757111 
	C823.889709,184.906509 824.781006,181.039215 825.278809,177.178772 
	C825.780518,177.078827 826.282227,176.978867 826.783936,176.878906 
	C827.576050,178.325470 828.400146,179.755585 829.155212,181.221222 
	C834.237610,191.086334 845.009705,195.100754 853.361694,190.354691 
	C858.485901,187.442871 861.077026,182.832947 859.678162,177.450516 
	C858.388489,172.487930 856.034302,167.346375 852.759094,163.452789 
	C846.459595,155.963760 838.754517,149.655029 832.476196,142.150803 
	C829.197693,138.232132 826.589722,133.031509 825.617432,128.032822 
	C821.990417,109.386391 837.418335,96.088318 856.929626,100.496216 
	C857.415405,100.605972 857.882202,100.797119 858.364746,100.924370 
	C867.731079,103.394562 869.546204,107.356728 865.343933,117.683205 
	C864.179626,116.075165 863.530945,114.465408 862.338867,113.664253 
	C858.461365,111.058296 854.641174,107.432251 850.332825,106.594009 
	C840.946594,104.767776 834.040649,113.933144 837.081360,123.470352 
	C838.019592,126.413155 840.014404,129.019104 841.749512,132.067688 
z"/>
<path fill="#8A7B64" opacity="1.000000" stroke="none" 
	d="
M1235.998779,158.893936 
	C1181.675781,158.893890 1127.852539,158.894226 1074.029297,158.891937 
	C1072.529785,158.891876 1070.737305,159.368317 1069.609253,158.713440 
	C1068.363892,157.990356 1067.113770,156.259827 1067.020386,154.889404 
	C1066.946167,153.798996 1068.478882,152.440704 1069.559326,151.501968 
	C1070.042847,151.081787 1071.165894,151.381744 1071.998779,151.381714 
	C1131.154419,151.379028 1190.309937,151.374725 1249.465576,151.404266 
	C1250.927124,151.404999 1252.762451,151.324310 1253.739746,152.120697 
	C1254.635254,152.850601 1255.218628,154.946335 1254.817627,156.022156 
	C1254.371460,157.219589 1252.703003,158.671936 1251.487671,158.747864 
	C1246.507690,159.058899 1241.497559,158.887650 1235.998779,158.893936 
z"/>
<path fill="#94846B" opacity="1.000000" stroke="none" 
	d="
M349.899231,108.488312 
	C348.723297,138.012634 348.408783,167.079269 350.376465,196.561752 
	C345.442596,196.561752 340.404236,196.561752 335.509064,196.561752 
	C335.509064,164.907516 335.509064,133.272507 335.509064,101.507812 
	C340.342957,101.507812 345.250519,101.507812 350.787628,101.507812 
	C350.476990,103.923859 350.212585,105.980110 349.899231,108.488312 
z"/>
<path fill="#96866D" opacity="1.000000" stroke="none" 
	d="
M145.000000,158.004242 
	C112.689560,158.004196 80.879120,158.004776 49.068676,158.001892 
	C47.736813,158.001770 46.121971,158.430420 45.146805,157.831879 
	C44.003235,157.130005 42.864388,155.565903 42.762295,154.292496 
	C42.680882,153.277023 43.954472,151.810608 45.006931,151.154358 
	C45.855862,150.625015 47.272854,150.987076 48.437824,150.987015 
	C107.228851,150.983749 166.019867,150.984055 224.810898,150.984070 
	C225.310532,150.984070 225.813980,151.025879 226.309189,150.979385 
	C229.042343,150.722687 230.915588,151.467621 230.831802,154.676712 
	C230.754242,157.647583 228.904907,158.049637 226.441437,158.029785 
	C217.448502,157.957291 208.454620,158.003799 199.461090,158.004074 
	C181.474060,158.004623 163.487030,158.004242 145.000000,158.004242 
z"/>
<path fill="#030302" opacity="1.000000" stroke="none" 
	d="
M764.825439,132.425140 
	C761.927429,145.885437 752.543518,152.719772 740.418579,150.793167 
	C737.838257,150.383163 736.714355,149.468475 736.742554,146.687378 
	C736.863831,134.719742 736.912292,122.748199 736.718567,110.782425 
	C736.661377,107.251694 738.666016,106.683350 741.276855,106.275307 
	C756.259094,103.933708 765.019531,111.315681 765.222107,126.517540 
	C765.246338,128.338608 764.989014,130.163437 764.825439,132.425140 
z"/>
</svg>